<?xml version="1.0" encoding="utf-8"?>
<!-- Generator: Adobe Illustrator 25.2.1, SVG Export Plug-In . SVG Version: 6.00 Build 0)  -->
<svg version="1.1" xmlns="http://www.w3.org/2000/svg" xmlns:xlink="http://www.w3.org/1999/xlink" x="0px" y="0px"
	 viewBox="0 0 500 500" style="enable-background:new 0 0 500 500;" xml:space="preserve">
<style type="text/css">
	.st0{display:none;}
	.st1{display:inline;fill:#F9FFF3;}
	.st2{opacity:0.1;fill:#2C2A40;}
	.st3{fill:#7B7B9A;}
	.st4{fill:#B0B1CA;}
	.st5{fill:#2C2A40;}
	.st6{opacity:0.2;fill:#2C2A40;}
	.st7{fill:#00497B;}
	.st8{fill:#F9B587;}
	.st9{fill:#F39568;}
	.st10{fill:#5B5B6C;}
	.st11{fill:#FAC457;}
	.st12{fill:#5B6EEC;}
	.st13{fill:#3E86AA;}
	.st14{fill:#FFFFFF;}
	.st15{fill:#AEC2BF;}
	.st16{display:inline;}
	.st17{fill:#112129;}
</style>
<g id="BACKGROUND" class="st0">
	<rect class="st1" width="500" height="500"/>
</g>
<g id="OBJECTS">
	<path class="st2" d="M411.24,180.79c-8.96-34.79-41.66-32.63-72.63-26.17c-16.66,3.47-40,8.28-64.35,1.18
		c-52.42-15.27-112.68-19.09-142.38,0c-29.7,19.09-47.55,42.09-38.99,74.22c8.56,32.13,30.32,61.03,11.82,78.22
		s-18.19,82.33,57.89,87.4c76.08,5.07,68.54-67.94,118.79-64.55c50.25,3.39,153.39,52.82,157.75,16.98
		c4.36-35.83-51.61-61.4-31.54-120.9C411.57,215.37,415.34,196.7,411.24,180.79z"/>
	<g>
		<path class="st2" d="M236.29,123.85c0,0,1.94-12.48,7.41-11.99c1.51,0.13,2.54,1.67,3.22,3.32c0.42,1.02,1.87,0.94,2.17-0.11
			c1.45-5.07,4.41-12.81,9-12.81c4.75,0,4.9,8.85,4.56,14.25c-0.05,0.81,1,1.17,1.46,0.5c1.25-1.84,3.08-3.61,5.3-3.1
			c4.33,1,3.16,9.95,3.16,9.95H236.29z"/>
		<path class="st2" d="M36.2,241.2c0,0,1.94-12.48,7.41-11.99c1.51,0.13,2.54,1.67,3.22,3.32c0.42,1.02,1.87,0.94,2.17-0.11
			c1.45-5.07,4.41-12.81,9-12.81c4.75,0,4.9,8.85,4.56,14.25c-0.05,0.81,1,1.17,1.46,0.5c1.25-1.84,3.08-3.61,5.3-3.1
			c4.33,1,3.16,9.95,3.16,9.95H36.2z"/>
		<path class="st2" d="M421.16,191.35c0,0,1.94-12.48,7.41-11.99c1.51,0.13,2.54,1.67,3.22,3.32c0.42,1.02,1.87,0.94,2.17-0.11
			c1.45-5.07,4.41-12.81,9-12.81c4.75,0,4.9,8.85,4.56,14.25c-0.05,0.81,1,1.17,1.46,0.5c1.25-1.84,3.08-3.61,5.3-3.1
			c4.33,1,3.16,9.95,3.16,9.95H421.16z"/>
	</g>
	<g>
		<g>
			<path class="st3" d="M406.83,395.03c0,0,6.11-1.08,5.75-9.16c-0.36-8.08-3.05-19.22-8.44-22.46c-5.39-3.23-9.32,1.44-9.32,1.44
				L406.83,395.03z"/>
			<path class="st4" d="M382.75,363.41c0.18,2.69,2.69,6.65,8.08,9.52c5.39,2.88,8.27,13.12,10.69,17.61
				c1.11,2.06,2.32,3.18,3.31,3.79c1.16,0.71,2,0.71,2,0.71s0.03-0.71,0.04-1.93c0.02-2.92-0.11-8.76-1.15-14.95
				c-1.47-8.8-6.69-11.86-6.69-11.86c-0.95-1.62-3-2.78-5.34-3.51c-3.82-1.19-8.4-1.25-10.18-0.35
				C383,362.68,382.73,363.01,382.75,363.41z"/>
			<path class="st5" d="M403.64,376.7c1.27,5.39,1.85,14.29,1.2,17.62c1.16,0.71,2,0.71,2,0.71s0.36-8.08-1.12-16.89
				c-1.47-8.8-6.69-11.86-6.69-11.86c-0.95-1.62-3-2.78-5.34-3.51C396.77,365.87,402.56,372.14,403.64,376.7z"/>
			<path class="st6" d="M382.75,363.41c0.18,2.69,2.69,6.65,8.08,9.52c5.39,2.88,8.27,13.12,10.69,17.61
				c1.11,2.06,2.32,3.18,3.31,3.79c1.16,0.71,2,0.71,2,0.71s0.03-0.71,0.04-1.93c-0.12-0.11-0.25-0.19-0.4-0.22
				c-1.79-0.45-4.22-1.14-5.66-7.82c-1.44-6.67-3.86-11.5-7.99-13.56c-3.77-1.88-8.51-8-9.31-9.07
				C383,362.68,382.73,363.01,382.75,363.41z"/>
		</g>
		<path class="st5" d="M339.35,194.56c0,0,41.6-6.25,52.9,11.42c11.29,17.67-3.88,76.72-16.12,85.66
			c-12.24,8.94-32.59,4.31-40.2-1.31C328.31,284.71,324.78,203.1,339.35,194.56z"/>
		<path class="st7" d="M387.54,268.1c0,0,5.27-1.26,7.16-7.46l-6.29-2.78C388.41,257.86,385.95,264.24,387.54,268.1z"/>
		<path class="st8" d="M387.54,257.23c8.62,13.12,28.09,16.53,28.09,16.53c4.03-1.18,9.4-6.78,14.71-13.62h0
			c10.09-12.99,19.96-30.44,19.96-30.44l-8.08-2.69c0,0-14.19,15.68-20.3,19.09c-6.11,3.41-7.91,6.65-7.91,6.65
			c-0.64-0.69-1.37-1.37-2.16-2.02c-4.34-3.58-10.32-6.38-10.32-6.38C394.61,242.4,387.54,257.23,387.54,257.23z"/>
		<path class="st9" d="M387.54,257.23c8.62,13.12,28.09,16.53,28.09,16.53c4.03-1.18,9.4-6.78,14.71-13.62
			c0,0-9.49,10.08-15.52,10.93c-6.03,0.85-17.46-7.37-18.61-10.51c-1.15-3.14,0.55-11.15,5.31-16.22
			C394.61,242.4,387.54,257.23,387.54,257.23z"/>
		<path class="st5" d="M304.8,291.64c0,0-0.45,26.51,3.27,43.25c3.72,16.74,19.62-27.41,19.62-27.41S313.44,294.98,304.8,291.64z"/>
		<path class="st5" d="M360.37,307.17c0,0-0.35,15.63-10.59,26.68c-10.24,11.05-14.64,23.98-14.64,23.98s15.33-7.01,25.22-5.12
			c0,0,5.18,0.27,7.07-1.89c1.89-2.16,2.43-4.72,5.39-3.91c2.96,0.81,7.14-0.13,8.22-0.27c1.08-0.13,7.95,10.78,6.6,17.92
			c0,0-5.39,1.48-6.06,2.43c-0.67,0.94-4.58,4.99-7.01,4.85c-2.43-0.13-8.89,3.64-8.89,3.64s-33.33,12.68-36.38,14.82
			c-5.14,3.6-29.37,7.55-31.53-6.06c-2.16-13.61,19-78.29,21.96-85.29C322.7,291.95,356.81,298.69,360.37,307.17z"/>
		<g>
			<path class="st10" d="M330.07,352.03l0.94,0.34c0.34-0.93,0.76-1.93,1.24-2.95l-0.9-0.43
				C330.85,350.05,330.42,351.07,330.07,352.03z"/>
			<path class="st10" d="M379.34,350.67l0.21,0.98c0.99-0.22,2.06-0.43,3.17-0.62l-0.17-0.99
				C381.43,350.24,380.35,350.45,379.34,350.67z"/>
			<path class="st10" d="M329.8,359.73l-0.99,0.11l0.01,0.11c0.17,1.38,0.59,2.41,1.27,3.15l0.73-0.68
				c-0.53-0.57-0.87-1.45-1.01-2.6L329.8,359.73z"/>
			<path class="st10" d="M337.7,362.67l0.27,0.96c1.03-0.29,2.11-0.63,3.13-0.96l-0.31-0.95
				C339.78,362.04,338.71,362.39,337.7,362.67z"/>
			<path class="st10" d="M336.91,339.42c-0.63,0.95-1.23,1.87-1.77,2.74l0.85,0.53c0.54-0.86,1.13-1.78,1.76-2.72L336.91,339.42z"/>
			<path class="st10" d="M334.82,344.61l-0.86-0.51c-0.58,0.99-1.12,1.95-1.6,2.86l0.88,0.47
				C333.72,346.53,334.25,345.58,334.82,344.61z"/>
			<path class="st10" d="M355.55,306.11l-0.99-0.17c-0.18,1.06-0.4,2.12-0.64,3.16l0.97,0.22
				C355.14,308.26,355.36,307.18,355.55,306.11z"/>
			<path class="st10" d="M340.86,335.46l-0.81-0.58c-0.68,0.96-1.29,1.83-1.87,2.67l0.82,0.57
				C339.58,337.28,340.19,336.41,340.86,335.46z"/>
			<path class="st10" d="M343.28,330.42c-0.63,0.87-1.27,1.74-1.91,2.63l0.81,0.59c0.64-0.88,1.28-1.76,1.91-2.63L343.28,330.42z"/>
			<path class="st10" d="M330.33,354.47l-0.97-0.26c-0.31,1.16-0.51,2.26-0.59,3.28l1,0.08
				C329.85,356.61,330.04,355.57,330.33,354.47z"/>
			<path class="st10" d="M332.51,363.3l-0.19,0.98c0.38,0.07,0.79,0.11,1.24,0.11c0.65,0,1.36-0.07,2.18-0.23l-0.18-0.98
				C334.3,363.41,333.31,363.45,332.51,363.3z"/>
			<path class="st10" d="M359.28,358.96l0.17,0.99c1.09-0.18,2.17-0.42,3.22-0.7l-0.26-0.97
				C361.39,358.55,360.34,358.78,359.28,358.96z"/>
			<path class="st10" d="M364.53,357.63l0.33,0.94c1.1-0.38,2.13-0.81,3.06-1.28l-0.45-0.89
				C366.58,356.85,365.59,357.26,364.53,357.63z"/>
			<path class="st10" d="M342.93,361.02l0.3,0.95c1.25-0.4,2.2-0.67,3.1-0.9l-0.25-0.97C345.17,360.34,344.2,360.62,342.93,361.02z"
				/>
			<path class="st10" d="M353.89,359.44l0.01,1c1.08-0.01,2.19-0.07,3.29-0.19l-0.1-0.99C356.02,359.37,354.94,359.43,353.89,359.44
				z"/>
			<path class="st10" d="M373.98,352.21l0.36,0.93c0.85-0.33,1.88-0.66,3.05-0.97l-0.26-0.97
				C375.93,351.52,374.86,351.86,373.98,352.21z"/>
			<path class="st10" d="M370.85,354.05c-0.38,0.42-0.89,0.84-1.5,1.26l0.56,0.83c0.67-0.46,1.23-0.93,1.67-1.41
				c0.2-0.22,0.47-0.43,0.81-0.65l-0.53-0.85C371.45,353.49,371.1,353.77,370.85,354.05z"/>
			<path class="st10" d="M353.38,311.27c-0.28,1.05-0.6,2.08-0.94,3.08l0.95,0.32c0.34-1.02,0.66-2.07,0.95-3.14L353.38,311.27z"/>
			<path class="st10" d="M344.61,328.6l0.81,0.59c0.65-0.89,1.29-1.77,1.92-2.63l-0.81-0.59
				C345.9,326.83,345.26,327.71,344.61,328.6z"/>
			<path class="st10" d="M350.3,321.86l-0.88-0.47c-0.51,0.96-1.06,1.89-1.63,2.76l0.84,0.55
				C349.21,323.8,349.78,322.84,350.3,321.86z"/>
			<path class="st10" d="M350.42,319.4l0.9,0.43c0.46-0.97,0.89-1.99,1.29-3.02l-0.93-0.36
				C351.29,317.46,350.87,318.45,350.42,319.4z"/>
			<path class="st10" d="M348.32,359.62l0.17,0.99c1.17-0.2,2.18-0.27,3.13-0.23l0.05-1C350.64,359.33,349.57,359.41,348.32,359.62z
				"/>
		</g>
		<path class="st8" d="M303.57,114.22l4.06,17.32l0.02,0.11c0,0,0.27,3.21,1.14,7.44c0.98,4.72,2.71,10.72,5.67,14.98
			c0.45,0.65,0.94,1.27,1.45,1.83c0,0,2.57,9.89,5.35,18.43h0c1.63,5.03,3.33,9.6,4.62,11.39c0,0,16.42-3.09,12.49-12.91
			c0,0-5.59-12.8-9.99-22.24c0-0.01,0-0.01,0-0.01c-0.85-1.83-1.66-3.53-2.37-4.99l-5.03-11.49l-2.41-5.51l-7.32-16.71
			L303.57,114.22z"/>
		<path class="st9" d="M321.27,174.33c1.63,5.03,3.33,9.6,4.62,11.39c0,0,16.42-3.09,12.49-12.91c0,0-5.59-12.8-9.99-22.24
			c0.11,0.37,3.95,13.86,2.8,17.65C330.03,172.07,326.61,175.69,321.27,174.33z"/>
		<path class="st11" d="M321.37,186.36c0.24,7.14,3.18,15.64,6.59,20.71c2.05,2.16,4.62,2.16,7.25,1.03
			c6.68-2.86,13.74-12.96,13.74-12.96l-9.62-20.33l-0.94-1.99c-5.43,1.48-10.94,5.35-14.13,7.88c-1.73,1.37-2.78,2.35-2.78,2.35
			C321.36,184.1,321.33,185.21,321.37,186.36z"/>
		<path class="st6" d="M321.37,186.36c0.24,7.14,3.18,15.64,6.59,20.71c2.05,2.16,4.62,2.16,7.25,1.03
			c-5.76-5.72-9.71-21.75-10.95-27.4c-1.73,1.37-2.78,2.35-2.78,2.35C321.36,184.1,321.33,185.21,321.37,186.36z"/>
		<path class="st5" d="M321.37,186.36c4.5-4.47,14.79-9.93,17.95-11.55l-0.94-1.99c-8.37,2.29-16.91,10.23-16.91,10.23
			C321.36,184.1,321.33,185.21,321.37,186.36z"/>
		<path class="st11" d="M299.53,295.05c12.52,16.2,64.78,17.25,64.78,17.25s-1.85-21.45,0-32.07c2.04-11.68,3.8-28.84,3.8-28.84
			c4.78,3.5,12.08,10,16.24,13.78c1.93,1.76,3.19,2.93,3.19,2.93c1.31-6.02,3.13-10.58,5.02-14.01c4.29-7.78,8.96-9.75,8.96-9.75
			l-2.19-2.86l-15.86-20.72l-17.05-14.12l-2.93-2.43l-13.42-8.59l-5.49-3.52c0,0-14.2,5.94-18.24,12.11
			c-4.04,6.17-13.33,34.77-16.17,48.8c-3.68,18.21-8.11,33.62-9.87,39.49l-0.01,0.01C299.81,294.15,299.53,295.05,299.53,295.05z"/>
		<path class="st6" d="M299.53,295.05c12.52,16.2,64.78,17.25,64.78,17.25s-1.85-21.45,0-32.07c2.04-11.68,3.8-28.84,3.8-28.84
			c4.78,3.5,12.08,10,16.24,13.78c1.93,1.76,3.19,2.93,3.19,2.93c1.31-6.02,3.13-10.58,5.02-14.01c0,0-18.32-9.93-26.15-18.6
			c0,0-9.76,27-13.12,40.6c-4.35,17.61-19.1,24.79-32.64,23.89c-13.53-0.9-20.35-7.49-20.35-7.49l-0.01,0.01
			C299.81,294.15,299.53,295.05,299.53,295.05z"/>
		<path class="st5" d="M358.08,209.79c3.1-0.61,4.67-2.33,7.03-4.25l-1.62-1.34l-14.31-11.36c-1.9,1.2-4.27,2.39-4.6,7.21
			C344.09,207.33,351.76,211.03,358.08,209.79z"/>
		<path class="st5" d="M384.35,265.17c1.93,1.76,3.19,2.93,3.19,2.93c4.28-19.67,13.98-23.76,13.98-23.76l-2.19-2.86
			C395.34,244.33,387.02,251.73,384.35,265.17z"/>
		<g>
			<path class="st5" d="M374.24,187.56c0,0,0.28,7.81-8.72,9.41C365.52,196.97,367.77,186.75,374.24,187.56z"/>
			<path class="st12" d="M359.49,170.82c5.44,8.74,14.22,16.09,14.22,16.09s18.75-9.05,12.59-23.93c-1.65-3.99-3.68-6.91-5.89-9.01
				v0h0c-9.38-8.96-21.88-3.17-21.88-3.17C353.08,156.45,355.28,164.05,359.49,170.82z"/>
			<polygon class="st13" points="380.41,153.97 380.41,153.97 380.41,153.97 			"/>
			<path class="st6" d="M359.49,170.82c5.44,8.74,14.22,16.09,14.22,16.09s18.75-9.05,12.59-23.93c-1.65-3.99-3.68-6.91-5.89-9.01
				c0.11,0.17,5.28,8.45,0,13.97C375.07,173.51,365.83,175.5,359.49,170.82z"/>
			<path class="st5" d="M373.61,166.85c0,0-4.9-25.35-20.59-24.2c-14.69,1.08-3.24,20.51-3.24,20.51S370.98,169.22,373.61,166.85z"
				/>
			<path class="st5" d="M354.22,157.88c0,0-6.73,1.34-6.1,7.54C348.12,165.42,353.82,162.04,354.22,157.88z"/>
			<g>
				<g>
					<path class="st8" d="M365.96,195.43l-2.47,8.78c-0.26,1.2-1.18,2.14-2.38,2.4c-10.3,2.27-15.2-5.29-14.17-7.93
						c1.33-0.47,24.25-7.81,28.42-16.62C375.37,182.05,373.91,189.93,365.96,195.43z"/>
					<path class="st8" d="M348.13,195.04c3.3,1.27,7.94,2.42,12.77,1.56c9.12-1.62,13.87-12.41,13.87-12.41s1.52-7.33-0.53-14.11
						c-0.55-1.84-1.37-3.64-2.55-5.24c-4.29-5.8-11.42-6.83-15.34-7.21c-1.95-0.19-3.84,0.75-4.86,2.42l-1.72,2.81l-1.15,1.88
						c-0.25,0.4-0.47,0.82-0.67,1.24c-0.67,1.43-1.08,2.96-1.2,4.54l-0.13,1.84c-0.89,1.14-1.57,2.41-2.03,3.75
						c-0.4,1.16-0.64,2.39-0.69,3.63l-0.36,8.28C343.41,191.11,345.25,193.94,348.13,195.04z"/>
					<path class="st5" d="M357.56,167.51c0,0,7.3-2.76,8.85,3.28l-1.14,0.87c0,0-2.21-4.65-8.01-2.58L357.56,167.51z"/>
					<path class="st9" d="M346.61,172.37c-0.89,1.14-1.57,2.41-2.03,3.75c1.44-0.3,3.93,0.02,8.11,2.56c0,0-1.54-2.98-3.9-4.06
						c-0.63-0.29-0.81-1.11-0.34-1.63l3.11-3.49c0,0-0.12-1.02-1-1.77c-0.54-0.46-1.66-1.21-2.61-1.74
						c-0.67,1.42-1.08,2.96-1.2,4.54L346.61,172.37z"/>
					<path class="st5" d="M348.7,164.86c1.68,0.87,2.85,1.97,2.85,1.97l-0.42,1.4c-1.05-0.95-2.07-1.57-3.03-1.95
						c-0.47-0.19-0.71-0.71-0.5-1.11c0-0.01,0.01-0.01,0.01-0.01C347.79,164.78,348.29,164.65,348.7,164.86z"/>
					<path class="st14" d="M345.88,179.6l12.66,4.16c0,0-4.26,5.95-10.65,2.96C342.87,184.37,345.88,179.6,345.88,179.6z"/>
					<path class="st9" d="M348.94,195.14c0,0,7.95,2.35,16.58-6.37c0,0,0.19,4.69-4.44,9.28c-3.37,3.35-9.74,2.79-12.96,2.24
						c-0.97-0.17-1.48-1.24-0.98-2.09L348.94,195.14z"/>
					<path class="st8" d="M372.42,181.05c0,0,4.2-3.36,6.68,0.06c2.48,3.42-3.73,12.57-7.76,8.58
						C367.3,185.71,372.42,181.05,372.42,181.05z"/>
				</g>
				<path class="st5" d="M357.39,172.02c0,0,1.66-1.86,3.6-1.02c2.84,1.22,2.34,3.86,2.34,3.86S362.23,169.87,357.39,172.02z"/>
				<path class="st5" d="M350.35,170.75c0,0-0.94-3.17-3.33-0.86C347.03,169.88,349.12,168.65,350.35,170.75z"/>
				<path class="st9" d="M349.67,162.83c0.01,0.09-0.22,0.45-0.21,0.54c0,0,4.1-3.43,11.31-0.64c7.21,2.78,10.74,9.61,10.74,9.61
					l2.73-2.25c-0.55-1.84-1.37-3.64-2.55-5.24c-4.29-5.8-11.42-6.83-15.34-7.21c-1.95-0.19-3.84,0.75-4.86,2.42L349.67,162.83z"/>
			</g>
			<path class="st5" d="M370.22,181.59l2.37,1.08l3.45-3.1c0.54-2.98-1.87-10.93-2.44-12.72c-0.3-0.29-0.8-0.58-1.16-0.86
				c0,0-2.38,8.22,0.2,11.27L370.22,181.59z"/>
		</g>
		<path class="st9" d="M307.63,131.54l0.02,0.11c0,0,0.27,3.21,1.14,7.44l12.18-5l-2.41-5.51L307.63,131.54z"/>
		<path class="st6" d="M325.51,215.02l9.64,8.61c0,0-3.45,13.53-10.83,10.51C315.43,230.5,325.51,215.02,325.51,215.02z"/>
		<g>
			<g>
				
					<rect x="287.98" y="103.25" transform="matrix(-0.9368 0.3498 -0.3498 -0.9368 643.5565 120.6132)" class="st5" width="45.81" height="30.33"/>
				<polygon class="st5" points="284.12,112.22 294.73,140.64 337.65,124.61 336.04,124.15 285.34,109.76 284.52,111.41 
					284.52,111.42 				"/>
				<path class="st14" d="M284.52,111.41l10.13,27.25c0.59-0.22,0.33-0.12,1.3-0.49l15.41-21.82l-26.02-6.6L284.52,111.41z"/>
				
					<rect x="289.26" y="101.14" transform="matrix(-0.9368 0.3498 -0.3498 -0.9368 643.3636 116.4298)" class="st5" width="43.81" height="30.33"/>
			</g>
			<path class="st8" d="M299.22,102.22C299.23,102.22,299.23,102.22,299.22,102.22c0.5-0.59,1.4-0.98,1.96-0.95
				c0.12-0.56,0.78-0.98,1.52-1.13c0.43-0.09,0.88-0.01,1.27,0.19c0.34-0.65,1.19-1.04,1.65-0.78c0,0,0.11,0.05,0.31,0.14
				c0.16-0.48,0.52-0.74,0.52-0.74l0,0c0.48-0.67,1.84-1.03,2.36-0.74c0,0,4.54,1.83,4.98,5.34c0.43,3.5,1.07,7.58-0.55,7
				c-0.46-0.17-0.92-0.75-1.33-1.53c0.18,2.1,0.07,3.67-0.98,3.3c-0.58-0.21-1.16-1.07-1.63-2.18c0.1,1.78-0.08,3.02-1.02,2.68
				c-0.85-0.31-1.68-2-2.2-3.82c0.16,2.03,0.04,3.52-0.99,3.15c-1.26-0.45-1.61-3.27-2.49-5.55c-1.03-2.67-1.27-1.27-2.78-2.25
				l-1.36,0.51C298.19,103.3,299.14,102.31,299.22,102.22z"/>
		</g>
		<path class="st8" d="M439.89,231.53c-1.91-1.19-3.29-3.05-3.89-5.22c-0.17-0.62-0.37-1.28-0.61-1.93c-0.9-2.52-0.18-7.91,0-10.06
			c0.18-2.16,1.71-6.29,2.16-6.74c0.45-0.45,3.14,1.47,2.07,4.24c-1.08,2.77-0.3,5.85,0.25,6.74c0.56,0.89,3.07-0.73,3.7-2.35
			c0.63-1.62,6.11-13.83,7.19-14.19c1.08-0.36,1.98-0.09,1.26,3.05c-0.72,3.14-4.13,8.62-3.68,10.15c0.45,1.53,1.26,0.27,1.53-0.54
			c0.27-0.81,4.67-12.37,5.39-12.79c0.72-0.42,2.78-1.14,1.71,3.76c-1.08,4.9-4.42,10.87-4.22,11.95c0.2,1.08,4.78-10.85,6.06-11.52
			c1.28-0.67,2.22,0.54,1.21,3.5s-3.71,8.71-3.94,9.36c-0.19,0.55-0.08,1.01,0.39,0.74c0.47-0.27,3.32-7.27,3.97-7.67
			c0.65-0.4,2.27,0.34,0.52,5.12c-1.75,4.78-2.92,9.02-7.68,13.42c-2.94,2.72-4.38,4.36-7.14,3.96
			C444.48,234.27,441.96,232.81,439.89,231.53z"/>
		<path class="st5" d="M380.41,218.08c0,0,1.17-12.95-9-15.65c-7.29-1.93-19.65,11.5-22.78,26.59c-5.53,26.68,7.29,49.95,15.67,53
			c0,0,7.65-5.93,1.82-13.92c0,0-15.78-15.91-8.74-38.81c5.86-19.07,15.22-23.98,18.74-14.62L380.41,218.08z"/>
		<path class="st5" d="M315.4,233.24l4.36-13.41c0,0-0.61-23.42,24.11-29.33c-0.25-0.78-0.37-1.62-0.33-2.47l0.15-3.57
			C340.6,184.67,309.1,193.77,315.4,233.24z"/>
		<path class="st9" d="M414.01,260.55c-0.47-4.21,0-7.82,0-7.82c-0.64-0.69-1.37-1.37-2.16-2.02
			C410.78,258.98,414.01,260.55,414.01,260.55z"/>
		<path class="st9" d="M314.47,154.07c0.45,0.65,0.94,1.27,1.45,1.83c0,0,4.16-2.43,5.36-3.06
			C321.28,152.84,317.44,152.91,314.47,154.07z"/>
		<g>
			<path class="st4" d="M381.05,347.28c2.23,2.11,4.04,7.04,5.21,11.03c0,0.01,0,0.01,0.01,0.02c0.95,3.24,1.48,5.86,1.48,5.86
				c1.98,2.16,6.51,1.54,13.78,2.33c6.55,0.71,11.13,5.26,16.01,7.22c0,0,0,0,0.01,0c0.54,0.22,1.09,0.4,1.64,0.55
				c2.9,0.76,4.95,0.29,6.06-1.12c1.01-1.27,1.25-3.3,0.68-5.86c-1.21-5.4-14.82-17.26-18.73-18.84c-3.91-1.58-6.33-2.5-10.98-6.33
				c-4.64-3.82-9.37-4.08-10.31-2.65c-0.16,0.24-0.4,0.62-0.69,1.08C383.76,342.88,381.05,347.28,381.05,347.28z"/>
			<path class="st5" d="M385.21,340.57c1.54-0.17,4.14-0.25,5.99,0.83c2.78,1.62,6.74,5.39,10.96,7.37
				c4.22,1.98,12.31,7.55,16.53,11.5c4.22,3.95,6.71,10.17,5.48,12.22c-1.23,2.05-3.46,1.97-6.62,1.26c0.54,0.22,1.09,0.4,1.64,0.55
				c5.52,1.45,7.95-1.58,6.74-6.98c-1.21-5.4-14.82-17.26-18.73-18.84c-3.91-1.58-6.33-2.5-10.98-6.33
				c-4.64-3.82-9.37-4.08-10.31-2.65C385.74,339.73,385.5,340.11,385.21,340.57z"/>
			<path class="st6" d="M386.26,358.33c0.95,3.24,1.48,5.86,1.48,5.86c1.98,2.16,6.51,1.54,13.78,2.33
				c6.55,0.71,11.13,5.26,16.01,7.22c0,0,0,0,0.01,0c0.54,0.22,1.09,0.4,1.64,0.55c2.9,0.76,4.95,0.29,6.06-1.12l0.36-2.12
				c0,0-4.85,2.43-10.42-0.81c-4.26-2.47-6.19-4.89-9.61-5.84c0.64-2.59-0.81-5.39-0.81-5.39c-0.27,2.88-1.06,4.95-1.06,4.95
				c-0.68-0.1-1.39-0.13-2.17-0.09C395.97,364.13,387.29,361.45,386.26,358.33z"/>
		</g>
	</g>
	<g>
		<g>
			<path class="st4" d="M96,333.55c1.7-0.1,3.1-0.96,4.3-2.22c0.04-0.04,0.08-0.08,0.11-0.12c0,0,0,0,0,0
				c2.1-2.25,3.6-5.69,5.09-8.27c0.43-0.76,0.87-1.45,1.32-2.01c1.4-1.77,3.85-6.42,5.98-10.72c0.11-0.22,0.22-0.43,0.32-0.65
				c2.07-4.2,3.77-7.87,3.77-7.87s-0.79-2.3-2.04-4.67c-0.39-0.73-0.82-1.46-1.28-2.13c-0.93-1.35-2.01-2.47-3.17-2.82
				c-3.59-1.11-6.92,1.28-9.69,4.49c-2.71,3.15-10.16,16.44-11.37,21.96c-0.03,0.12-0.05,0.23-0.07,0.34
				C88.02,325.81,90.39,333.88,96,333.55z"/>
			<path class="st5" d="M96,333.55c1.75-0.1,3.19-1.02,4.42-2.34c-3.91,1.87-6.29,0.74-7.66-0.81c-1.71-1.94-2.36-7.26-1.91-9.51
				c1.09-5.47,5.14-14.05,7.2-17.47c2.06-3.42,6.15-9.05,10.12-9.6c2.27-0.32,4.19,0.4,5.42,1.07c-0.93-1.35-2.01-2.47-3.17-2.82
				c-3.59-1.11-6.92,1.28-9.69,4.49c-2.76,3.22-10.48,17.02-11.44,22.3C88.02,325.81,90.39,333.88,96,333.55z"/>
			<path class="st6" d="M96,333.55c1.7-0.1,3.1-0.96,4.3-2.22c0.04-0.04,0.08-0.08,0.11-0.12c0,0,0,0,0,0
				c2.1-2.25,3.6-5.69,5.09-8.27c0.43-0.76,0.87-1.45,1.32-2.01c1.4-1.77,3.85-6.42,5.98-10.72c0.11-0.22,0.22-0.43,0.32-0.65
				c-0.67-0.79-1.56-1.13-2.72-0.81c0,0-2.79,2.57-5.42,7.86c-2.9,5.81-4.42,11.33-9.84,11.37c-5.42,0.05-4.44-3.51-5.17-8.63
				c-0.1-0.71-0.33-0.95-0.64-0.82c-0.03,0.12-0.05,0.23-0.07,0.34C88.02,325.81,90.39,333.88,96,333.55z"/>
		</g>
		<g>
			<path class="st4" d="M185.7,382.18c0.06,3,2.42,22.88,8.9,26.9c3.27,2.03,5.15,1.95,6.09,0.43c0.54-0.87,0.78-2.2,0.79-3.88
				c0.01-1.2-0.09-2.58-0.27-4.08c-0.89-7.29-1-24.16,5.41-27.82c0,0-1.17-8.71-4.17-14.07c-0.9-1.62-1.97-2.93-3.22-3.61
				c0,0-4.47,0.03-7.29,0.41c-1.22,0.16-2.85,0.11-4.39,0.53c-2.02,0.55-3.86,1.91-4.33,5.65
				C182.37,369.22,185.63,379.17,185.7,382.18z"/>
			<path class="st5" d="M185.7,382.18c0.06,3,2.42,22.88,8.9,26.9c3.27,2.03,5.15,1.95,6.09,0.43c-1.65,0.07-3.94-0.48-5.99-2.24
				c-2.82-2.42-6.36-16.07-6.15-20.47c0.21-4.4-1.61-12.41-3.2-18.56c-1.21-4.65,1.04-9.28,2.2-11.25
				c-2.02,0.55-3.86,1.91-4.33,5.65C182.37,369.22,185.63,379.17,185.7,382.18z"/>
			<path class="st6" d="M185.7,382.18c0.06,3,2.42,22.88,8.9,26.9c3.27,2.03,5.15,1.95,6.09,0.43c0.54-0.87,0.78-2.2,0.79-3.88
				c-1.24,0.28-3.1-0.19-5.25-1.4c-3.8-2.13-4.55-13.78-4.01-21.47c0.55-7.69-4.05-13.73-1.41-18.57
				c2.64-4.84,11.37-3.75,11.37-3.75c0.11-0.27,0.19-0.53,0.26-0.78c-0.9-1.62-1.97-2.93-3.22-3.61c0,0-4.47,0.03-7.29,0.41
				c-1.22,0.16-2.85,0.11-4.39,0.53c-2.02,0.55-3.86,1.91-4.33,5.65C182.37,369.22,185.63,379.17,185.7,382.18z"/>
		</g>
		<path class="st5" d="M186.26,171.52c0,0-39.01,1.06-46.46,19.03c-7.44,17.97,16.01,69.44,28.65,75.61
			c12.64,6.18,30.46-1.36,36.5-7.74C210.99,252.05,200.95,176.94,186.26,171.52z"/>
		<g>
			<g>
				<path class="st8" d="M161.9,219.4c0,0-0.06,7.26-3.03,15.15c0,0-0.87,5.27-2.23,11.79c0,0,0,0,0,0
					c-1.6,7.69-3.16,13.34-5.46,18.01c-1.94,3.93-3.35,7.71-4.31,10.65c-0.12,0.36-0.23,0.7-0.33,1.03l0,0
					c-0.91,2.94-1.32,4.83-1.32,4.83l-8.56-2.85c0,0-0.53-9.02-0.38-13.93c0.19-6.09-0.45-17.98,3.45-27.83c0,0,0,0,0,0
					c0.31-0.79,0.65-1.51,1.01-2.15c0,0,1.1-9.71,2.68-16.13c0.53-2.13,1.1-3.89,1.71-4.82C145.13,213.17,157.81,211.85,161.9,219.4
					z"/>
				<path class="st9" d="M146.27,235c0,0-4.98,0.05-6.54,1.26c0,0,0,0,0,0c0.31-0.79,0.65-1.51,1.01-2.15
					C140.74,234.12,144.57,233.89,146.27,235z"/>
				<path class="st9" d="M161.9,219.4c0,0-0.06,7.26-3.03,15.15c0,0-0.87,5.27-2.23,11.79c0.53-4.91,0.16-13.73,0.26-20.16
					c0.07-4.39-3.88-5.42-7.34-6.66c-1.44-0.52-4.26-1.05-5.93-1.6c-0.07-0.02-0.14,0.05-0.21,0.07c0.53-2.13,1.1-3.89,1.71-4.82
					C145.13,213.17,157.81,211.85,161.9,219.4z"/>
			</g>
			<path class="st8" d="M143.96,274.22l8.2,5.81c0.87,0.62,1.39,1.61,1.41,2.67l0.13,7.9c0.02,0.94-0.73,1.72-1.68,1.73l0,0
				c-0.79,0.01-1.48-0.52-1.68-1.28l-1.89-7.44l-1.93-0.71l1.21,4.44l1.49,4.03l3.74,4.68c0.54,0.68,0.41,1.68-0.3,2.19l0,0
				c-0.62,0.45-1.47,0.37-1.99-0.18l-4.93-5.12l-3.3-4.04l2.59,5.08l5,7.47c0.33,0.49,0.33,1.14,0,1.63l0,0
				c-0.51,0.76-1.59,0.86-2.24,0.22l-5.42-5.39l-3.08-4.8l2.71,8.47l2.4,5.42c0.27,0.6,0.05,1.3-0.51,1.65l0,0
				c-0.62,0.38-1.43,0.19-1.81-0.42l-3.48-5.63l-2.51-6.53l1.62,5.62l0.89,1.92c0.19,0.4,0.01,0.87-0.39,1.06l0,0
				c-0.35,0.16-0.76,0.05-0.98-0.26l-1.33-1.84l-1.97-4.66l2.76-19.96C136.7,277.95,137.85,275.21,143.96,274.22z"/>
			<path class="st9" d="M146.54,276.05c0,0-2.53-1.51-5.5-1.13c0,0,3.2-1.21,5.83,0.09L146.54,276.05z"/>
		</g>
		<g>
			<path class="st8" d="M224.67,156.34c8.73-17.21,5.18-39.81,4.56-45.52c-0.05-0.5-0.27-1.2-0.64-2.05c0,0,0,0,0,0
				c-3.31-7.86-18.29-29.06-21.7-33.84c-0.23-0.33-0.41-0.57-0.53-0.74c-0.11-0.15-0.16-0.23-0.16-0.23l-10.51,4.89
				c0,0,7.07,7.39,9.84,16.66c2.78,9.27,9.42,21.43,9.42,21.43c-2.93,10.76-3.15,24.83-3.15,24.83
				C216.89,153.7,224.67,156.34,224.67,156.34z"/>
			<path class="st9" d="M224.67,156.34c8.73-17.21,5.18-39.81,4.56-45.52c-0.05-0.5-0.27-1.2-0.64-2.05
				c-0.01,0.28-0.26,18.48-1.44,24.36c-1.2,5.93-3.1,12.15-6.56,12.98c-3.46,0.83-6.91-1.13-8.79-4.33
				C216.89,153.7,224.67,156.34,224.67,156.34z"/>
			<g>
				<path class="st8" d="M206.17,74.79c-1.41,1.49-7.51,5.63-8.4,6.03c-0.31,0.14-0.73-0.06-1.14-0.38
					c-0.41,0.01-3.09,0.05-4.55-0.65c-0.8-0.39-0.76-1.53-0.52-2.74c-1.93-0.52-5.65-3.58-5.52-6.4c0.13-3.08,3.44-3.22,3.44-3.22
					c0.15-3.53,3.49-2.88,3.49-2.88c0.21-1.53,3.02-2.15,3.02-2.15c0.32-1.3,2.15-1.49,3.22-0.95c1.07,0.54,7.32,8.17,7.57,9.54
					C207.03,72.38,206.17,74.79,206.17,74.79z"/>
				<path class="st9" d="M196.58,75.48c0.42,1.78-1.07,1.97-1.07,1.97c0.31-0.22,0.3-0.98,0.23-1.63c0,0,0-0.44-0.15-0.98
					c0,0,0,0,0,0c-0.17-0.58-0.52-1.27-1.25-1.62c-1.32-0.63-1.93-0.24-1.93-0.24l-2.56-3.66c1.35,0.86,3.12,2.87,3.12,2.87
					c2.36-0.04,3.19,1.72,3.48,2.68c0.46-0.02,0.98-0.21,1.18-0.85c0.4-1.27-0.42-2.53-0.42-2.53l-3.55-4.98c0,0,4.9,4.8,4.97,6.62
					C198.71,75.56,196.58,75.48,196.58,75.48z"/>
				<path class="st9" d="M197.37,65.06c0,0,3.18,4,3.59,5.08c0.44,1.18-0.33,2.33-1.19,2.54c-0.86,0.21-1.34-0.24-1.34-0.24
					l-0.03,1.23c0,0,3.3,0.6,3.35-2.55C201.78,69.55,197.37,65.06,197.37,65.06z"/>
				<path class="st9" d="M201.57,70.39c0,0,0.78,0.79,1.76,0.5c0.98-0.29,1.19-0.94,0.98-1.54c0,0,0.57,0.59,0.05,1.43
					c-0.68,1.09-2.31,0.85-2.82,0.7L201.57,70.39z"/>
			</g>
			<path class="st9" d="M204.91,76.22c0,0,1.2-0.22,1.98-1.31c-0.23-0.33-0.41-0.57-0.53-0.74
				C206.36,74.18,205.88,75.22,204.91,76.22z"/>
			<path class="st9" d="M197.42,80.86c0,0,1.54-0.13,2.41-0.68c0,0-0.81,1.06-1.9,1.31L197.42,80.86z"/>
			<path class="st9" d="M214.95,116.94c0,0,4.6-0.7,6.17-2.01c0,0-1.68,3.96-6.69,4.1L214.95,116.94z"/>
		</g>
		<path class="st5" d="M109.55,315.81c1.85,1.38,1,1.69,2.83,2.68c1.77,0.96,6.43,4.77,6.71,5.01c0.01,0.01,0.01,0.01,0.01,0.01
			c12.17,12.92,32.67,33.02,43.79,34.55c10.48,1.44,26.09-27.94,36.06-49.51c0,0,0,0,0,0c0.11-0.16,4.17-6.15,10.25-4.39
			c6.15,1.79,28.83,23.07,39.26,28.46c0,0-13.99,0.72-18.56,6.58c-4.57,5.86-17.31,11.47-19.62,12.39
			c-2.31,0.93-3.52-0.11-5.67,1.31c-2.15,1.42-5.4,3.17-5.4,3.17c-0.09,6.53,2.35,12.18,7.12,17.85c0,0,1.99-1.07,3.89-1.64
			c2.65-0.78,8.23-2.25,9.22-4.08c0.99-1.83,35.46-9.08,35.46-9.08s26.48-5.25,28.54-17.81c2.06-12.57-51.71-69.04-51.71-69.04
			l-4.16-18.11l-19.41,3.21l0-0.01l-35.42,2.68c0,0-6.06,16.28-7.76,30.97c-1.14,9.83-7.65,33.18-7.65,33.18s-5.99-6.16-17.65-11.15
			c-2.98-1.28-6.05-2.67-8.97-4.03l0,0c0,0-4.42-2.22-5.96-4.36c-1.54-2.14-2.48-1.32-4.15-1.82c-1.67-0.5-3.07-2.52-4.19-2.32
			c-1.11,0.21-1.44,0.76-1.44,0.76c-2.84,2.67-4.12,4.43-6.01,10.97C108.96,312.23,107.7,314.43,109.55,315.81z"/>
		<g>
			<path class="st10" d="M141.24,319.49l-0.4,0.63c0.83,0.53,1.72,1.15,2.64,1.85l0.45-0.6
				C142.98,320.66,142.08,320.03,141.24,319.49z"/>
			<path class="st10" d="M136.37,316.86l-0.35,0.66c0.8,0.42,1.57,0.82,2.29,1.17c0.2,0.1,0.4,0.2,0.61,0.31l0.35-0.66
				c-0.21-0.11-0.42-0.22-0.63-0.32C137.93,317.67,137.16,317.28,136.37,316.86z"/>
			<path class="st10" d="M131.2,314.82c0.96,0.57,1.91,1.11,2.83,1.62l0.36-0.66c-0.91-0.51-1.86-1.05-2.82-1.61L131.2,314.82z"/>
			<path class="st10" d="M145.24,323.35c0.78,0.63,1.59,1.31,2.48,2.08l0.49-0.57c-0.9-0.78-1.72-1.46-2.5-2.1L145.24,323.35z"/>
			<path class="st10" d="M154.01,330.03l-0.49,0.56c1.07,0.94,1.78,1.51,2.3,1.85c0.12,0.08,0.24,0.14,0.36,0.2l0.32-0.68
				c-0.09-0.04-0.18-0.09-0.27-0.15C155.73,331.49,155.05,330.95,154.01,330.03z"/>
			<path class="st10" d="M158.29,331.83l0.36,0.66c0.79-0.44,1.59-1.25,2.39-2.41l-0.62-0.42
				C159.7,330.71,158.98,331.44,158.29,331.83z"/>
			<path class="st10" d="M149.91,326.35l-0.5,0.56c0.71,0.63,1.39,1.24,2.03,1.82l0.39,0.35l0.5-0.56l-0.39-0.35
				C151.3,327.6,150.62,326.98,149.91,326.35z"/>
			<path class="st10" d="M126.5,311.94c0.89,0.57,1.82,1.15,2.77,1.73l0.39-0.64c-0.94-0.57-1.87-1.15-2.75-1.72L126.5,311.94z"/>
			<path class="st10" d="M113.51,304.13c-0.19,0.22-0.38,0.45-0.56,0.68c0.59,0.08,1.45,0.22,2.38,0.44l0.17-0.73
				C114.76,304.34,114.07,304.22,113.51,304.13z"/>
			<path class="st10" d="M117.71,305.17l-0.26,0.7c1.1,0.41,1.94,0.88,2.5,1.4c0.05,0.05,0.11,0.1,0.17,0.15l0.5-0.56
				c-0.06-0.05-0.11-0.1-0.16-0.14C119.83,306.13,118.91,305.61,117.71,305.17z"/>
			<path class="st10" d="M122.36,308.23l-0.44,0.61c0.76,0.56,1.67,1.18,2.69,1.86l0.42-0.62
				C124.01,309.4,123.12,308.78,122.36,308.23z"/>
			<path class="st10" d="M171.6,285.09l0.73,0.19c0.28-1.05,0.56-2.1,0.84-3.14l-0.72-0.2C172.16,282.99,171.87,284.04,171.6,285.09
				z"/>
			<path class="st10" d="M173.04,279.77l0.72,0.2c0.29-1.05,0.59-2.1,0.89-3.13l-0.72-0.21
				C173.63,277.67,173.34,278.71,173.04,279.77z"/>
			<path class="st10" d="M168.98,295.8l0.73,0.16c0.23-1.02,0.47-2.09,0.73-3.17l-0.73-0.17
				C169.45,293.71,169.21,294.78,168.98,295.8z"/>
			<path class="st10" d="M170.24,290.43l0.73,0.18c0.25-1.02,0.52-2.08,0.79-3.15l-0.73-0.19
				C170.76,288.34,170.49,289.41,170.24,290.43z"/>
			<path class="st10" d="M174.56,274.47l0.72,0.21c0.31-1.06,0.62-2.1,0.93-3.12l-0.72-0.22
				C175.19,272.36,174.87,273.4,174.56,274.47z"/>
			<path class="st10" d="M161.55,327.75l0.67,0.35c0.46-0.89,0.92-1.9,1.36-3l-0.7-0.28C162.45,325.9,162,326.89,161.55,327.75z"/>
			<path class="st10" d="M177.86,263.94l0.71,0.24c0.38-1.12,0.74-2.15,1.07-3.07l-0.7-0.26
				C178.6,261.77,178.24,262.81,177.86,263.94z"/>
			<path class="st10" d="M176.16,269.19l0.72,0.22c0.33-1.07,0.67-2.11,0.99-3.1l-0.71-0.23
				C176.83,267.07,176.5,268.11,176.16,269.19z"/>
			<path class="st10" d="M163.65,322.73l0.71,0.24c0.34-0.99,0.67-2.04,0.97-3.13l-0.72-0.2
				C164.31,320.71,163.98,321.75,163.65,322.73z"/>
			<path class="st10" d="M167.86,301.21l0.74,0.14c0.19-1,0.4-2.07,0.64-3.19l-0.73-0.15C168.27,299.13,168.05,300.21,167.86,301.21
				z"/>
			<path class="st10" d="M165.17,317.48l0.73,0.18c0.26-1.04,0.49-2.12,0.71-3.19l-0.74-0.15
				C165.66,315.39,165.43,316.45,165.17,317.48z"/>
			<path class="st10" d="M166.28,312.12l0.74,0.12c0.18-1.08,0.34-2.16,0.47-3.23l-0.74-0.09
				C166.61,309.98,166.45,311.05,166.28,312.12z"/>
			<path class="st10" d="M166.99,306.68l0.74,0.09c0.12-0.96,0.27-2.04,0.47-3.2l-0.74-0.12
				C167.27,304.62,167.11,305.71,166.99,306.68z"/>
		</g>
		<g>
			<path class="st10" d="M212.79,300.46c-1.12-0.03-2.24,0.13-3.32,0.46l0.22,0.72c1.01-0.31,2.05-0.46,3.08-0.43L212.79,300.46z"/>
			<path class="st10" d="M217.83,302.68l0.37-0.65c-0.3-0.17-0.58-0.32-0.84-0.44c-0.74-0.35-1.5-0.62-2.25-0.81l-0.18,0.73
				c0.7,0.18,1.41,0.43,2.12,0.76C217.28,302.38,217.55,302.52,217.83,302.68z"/>
			<path class="st10" d="M219.77,350.64l0.33,0.67c0.98-0.49,1.96-0.99,2.91-1.48l-0.35-0.66
				C221.72,349.66,220.75,350.16,219.77,350.64z"/>
			<path class="st10" d="M224.65,348.1l0.36,0.66c1.01-0.55,1.97-1.09,2.84-1.61l-0.38-0.65
				C226.6,347.02,225.65,347.55,224.65,348.1z"/>
			<path class="st10" d="M229.39,345.34l0.4,0.63c1.12-0.71,2.03-1.35,2.71-1.88l-0.47-0.58
				C231.37,344.03,230.49,344.65,229.39,345.34z"/>
			<path class="st10" d="M201.01,360.11c0.67-0.47,1.33-0.9,1.96-1.29l-0.4-0.64c-0.56,0.35-1.13,0.72-1.72,1.13
				C200.91,359.58,200.96,359.84,201.01,360.11z"/>
			<path class="st10" d="M204.56,357.04l0.35,0.66c1.08-0.57,2.07-0.99,2.92-1.25l-0.22-0.72
				C206.71,356.01,205.68,356.45,204.56,357.04z"/>
			<path class="st10" d="M224.02,307.24c0.76,0.63,1.59,1.34,2.47,2.11l0.49-0.57c-0.88-0.77-1.72-1.48-2.48-2.12L224.02,307.24z"/>
			<path class="st10" d="M209.75,355.09l0.25,0.71c0.86-0.31,1.89-0.71,3.05-1.2l-0.29-0.69
				C211.61,354.38,210.6,354.78,209.75,355.09z"/>
			<path class="st10" d="M214.81,353l0.31,0.68c0.95-0.43,1.95-0.89,2.96-1.38l-0.32-0.68C216.75,352.11,215.76,352.57,214.81,353z"
				/>
			<path class="st10" d="M206.89,302.98c0.25-0.16,0.52-0.33,0.81-0.49l-0.36-0.66c-0.53,0.29-0.99,0.59-1.37,0.87
				C206.27,302.8,206.58,302.89,206.89,302.98z"/>
			<path class="st10" d="M220.12,303.27l-0.43,0.61c0.76,0.54,1.63,1.19,2.58,1.94l0.47-0.59
				C221.78,304.47,220.9,303.81,220.12,303.27z"/>
			<path class="st10" d="M252.46,336.56c-0.36,0.27-1.21,0.58-2.62,0.96l0.2,0.72c1.53-0.42,2.42-0.75,2.87-1.09
				c0.09-0.07,0.18-0.14,0.27-0.22l-0.49-0.56C252.61,336.45,252.54,336.51,252.46,336.56z"/>
			<path class="st10" d="M245.15,324.88l-0.47,0.58c1,0.81,1.86,1.45,2.62,1.98l0.43-0.62
				C246.98,326.31,246.14,325.67,245.15,324.88z"/>
			<path class="st10" d="M249.63,327.96l-0.02-0.01l-0.32,0.68l0.03,0.01c1.06,0.5,1.95,1.05,2.65,1.64l0.48-0.57
				C251.69,329.06,250.74,328.48,249.63,327.96z"/>
			<path class="st10" d="M254,331.48l-0.65,0.38c0.25,0.43,0.42,0.87,0.5,1.31c0.09,0.51,0.06,1.03-0.08,1.52l0.72,0.21
				c0.18-0.61,0.21-1.24,0.1-1.86C254.49,332.51,254.3,331.98,254,331.48z"/>
			<path class="st10" d="M246.07,338.46c-0.51,0.12-1.03,0.24-1.56,0.37l0.18,0.73c0.53-0.13,1.05-0.25,1.56-0.37
				c0.56-0.13,1.1-0.26,1.61-0.38l-0.18-0.73C247.16,338.2,246.62,338.33,246.07,338.46z"/>
			<path class="st10" d="M239.16,340.24l0.22,0.72c0.93-0.28,1.95-0.56,3.12-0.86l-0.19-0.73
				C241.13,339.68,240.1,339.96,239.16,340.24z"/>
			<path class="st10" d="M233.96,342.24l0.35,0.66c0.8-0.42,1.79-0.84,2.94-1.25l-0.25-0.71
				C235.8,341.37,234.81,341.79,233.96,342.24z"/>
			<path class="st10" d="M234.49,315.51c-0.57-0.52-1.14-1.04-1.71-1.56l-0.5,0.56c0.57,0.52,1.14,1.04,1.71,1.55l0.7,0.63l0.5-0.56
				L234.49,315.51z"/>
			<path class="st10" d="M236.35,318.21c0.82,0.74,1.63,1.47,2.42,2.18l0.5-0.56c-0.79-0.71-1.6-1.44-2.42-2.18L236.35,318.21z"/>
			<path class="st10" d="M243.42,323.45c-0.75-0.63-1.56-1.33-2.46-2.12l-0.49,0.56c0.91,0.8,1.71,1.49,2.47,2.13L243.42,323.45z"/>
			<path class="st10" d="M231.11,312.44c-0.82-0.74-1.63-1.46-2.43-2.17l-0.5,0.56c0.8,0.71,1.61,1.43,2.42,2.17L231.11,312.44z"/>
		</g>
		<path class="st15" d="M234.76,270.98c0,0-35.5,11.56-54.67,6.38c-1.43-0.39-13.09-2.75-13.09-2.75s6.58-24.98,4.74-41.57
			c-0.48-4.4-1.52-13.08-4.63-20.96c-1.11-2.82-2.25-5.69-3.37-8.48c-3.33-8.26-6.43-15.79-7.8-19.09c2.85-1.97,5.18-2.48,5.72-2.58
			c0.08-0.01,0.11-0.01,0.11-0.01c3.15-0.53,7.17-1.36,11.46-2.65h0.01c5.52-1.68,11.49-4.12,16.66-7.68l4.8-2.67l5.04-2.81
			c0,0,6.2,2.24,12.64,11.44c-1.66,1.97-3.44,3.79-5.35,5.36c2.84,1.78,5.21,2.62,5.21,2.62c1.23-0.69,2.39-1.54,3.49-2.53
			c4.08,7.56,7.82,18.34,9.65,33.59c1.65,13.85,4.56,30.01,6.71,41.1C233.62,265.64,234.76,270.98,234.76,270.98z"/>
		<path class="st5" d="M182.74,185.11c-6.58-0.56-8.09-3.7-9.5-5.84c5.52-1.68,11.49-4.12,16.66-7.68l3.15-1.77
			c0.9,0,3.12,1.66,3.12,4.98C196.17,179.28,191.49,185.86,182.74,185.11z"/>
		<path class="st6" d="M203.79,194.63l11.55-5.17c0,0,8.98,13.49,1.66,16.13C209.14,208.42,203.79,194.63,203.79,194.63z"/>
		<path class="st5" d="M191.46,138.84c0,0,4.85-3.67,2.86-11.04c0,0-1.63,2.8-3.11,3.08c0,0,3.75-10.15-7.71-15.8
			c0,0,1.34,5.58-0.02,7.44c0,0-3.03-6.46-7.51-7.79c0,0,0.67,11.31-6.34,13.6c-5,1.63-11.47,7.44-13.25,16.99
			c0,0-2.91-0.84-3.99,0.3c0,0,3.72,0.63,4.24,3c0,0-1.56-0.79-2.74,0.21c0,0,2.63,0.54,3.04,2.6c0.41,2.06,10.37,17.8,16.38,20.42
			C179.31,174.48,191.46,138.84,191.46,138.84z"/>
		<g>
			<g>
				<path class="st8" d="M175.91,174.25l0.8,4.62c0.2,1.17,1.07,2.13,2.22,2.43c9.94,2.59,14.32-3.59,14.82-5.98
					c-1.28-0.51-24.05-9.72-27.78-18.46C165.97,156.86,168.37,168.6,175.91,174.25z"/>
				<path class="st8" d="M194.34,148.5c0.82,1.14,1.44,2.4,1.84,3.73c0.35,1.15,0.53,2.35,0.53,3.56l0.04,8.07
					c0.01,3-1.89,5.68-4.73,6.65c-3.26,1.11-7.82,2.06-12.49,1.04c-8.82-1.92-13.04-12.6-13.04-12.6s-3.68-11.08,3.72-18.72
					c5.12-5.29,12-6.33,15.74-6.47c1.6-0.06,3.11,0.78,3.89,2.18l2.83,5.06c0.23,0.4,0.43,0.81,0.6,1.23
					c0.6,1.41,0.94,2.92,0.99,4.47L194.34,148.5z"/>
				<path class="st5" d="M183.86,143.36c0,0-7-2.96-8.74,2.86l1.08,0.89c0,0,2.32-4.45,7.9-2.21L183.86,143.36z"/>
				<path class="st9" d="M194.34,148.5c0.82,1.14,1.44,2.4,1.84,3.73c-1.39-0.35-3.83-0.13-7.99,2.19c0,0,1.61-2.84,3.95-3.81
					c0.63-0.26,0.83-1.05,0.39-1.58l-2.89-3.51c0,0,0.16-0.99,1.04-1.68c0.54-0.42,1.66-1.12,2.61-1.6c0.6,1.41,0.94,2.92,0.99,4.47
					L194.34,148.5z"/>
				<path class="st5" d="M192.58,141.11c-1.66,0.78-2.85,1.81-2.85,1.81l0.36,1.37c1.06-0.89,2.08-1.45,3.02-1.78
					c0.47-0.17,0.71-0.66,0.53-1.07c0,0,0-0.01-0.01-0.01C193.47,141.06,193,140.92,192.58,141.11z"/>
				<path class="st14" d="M194.78,155.57l-12.48,3.58c0,0,3.93,5.95,10.26,3.28C197.53,160.33,194.78,155.57,194.78,155.57z"/>
				<path class="st9" d="M191.22,170.59c0,0-7.82,1.99-15.91-6.82c0,0-0.36,4.56,3.98,9.21c4.34,4.65,14.46,2.34,14.46,2.34
					L191.22,170.59z"/>
				<path class="st8" d="M168.89,155.99c0,0-3.96-3.43-6.51-0.19c-2.55,3.24,3.16,12.38,7.24,8.65
					C173.7,160.71,168.89,155.99,168.89,155.99z"/>
			</g>
			<path class="st5" d="M183.86,147.75c0,0-1.55-1.87-3.47-1.13c-2.81,1.08-2.42,3.67-2.42,3.67S179.23,145.48,183.86,147.75z"/>
			<path class="st5" d="M190.76,146.78c0,0,1.03-3.06,3.27-0.72C194.03,146.06,192.04,144.79,190.76,146.78z"/>
		</g>
		<path class="st5" d="M167.36,143.55c0,0,3.04,3.67,0.57,7.5l2.55,5.88l-2.64,0.68l-2.2-3.26l-1.7-8.42
			C163.95,145.93,165.99,142.07,167.36,143.55z"/>
		<path class="st15" d="M231.56,149.36c0,0-0.32,1.6-0.98,4.14c-2.15,8.2-7.92,26.19-18.34,32.03c0,0-2.37-0.84-5.21-2.62
			c-4.39-2.75-9.89-7.72-9.39-15.24c0,0,8.94-14.85,12.73-25.3c0.35-0.95,0.65-1.87,0.9-2.74l16.62,7.97L231.56,149.36z"/>
		<path class="st5" d="M231.56,149.36c0,0-0.32,1.6-0.98,4.14c-3.9-3.02-16.29-9.2-20.21-11.13c0.35-0.95,0.65-1.87,0.9-2.74
			l16.62,7.97L231.56,149.36z"/>
		<path class="st6" d="M231.56,149.36c0,0-4.7,23.63-15.83,33.64c-1.1-2.04-2.23-3.85-3.35-5.45c8.47-10.1,13.66-24.3,15.51-29.95
			L231.56,149.36z"/>
		<path class="st15" d="M168.79,197.52c-0.31,1.96-0.69,3.3-0.69,3.3l-0.99,11.26l-1.12,10.84l-0.32,3.14
			c-1.89,2.65-8.29,2.89-14.34,2.45v-0.01c-6.35-0.46-12.32-1.68-12.32-1.68s0.16-1.22,0.52-3.31c0.86-5.04,2.89-15.16,6.71-25.54
			c2.68-7.26,6.51-11.27,9.7-13.46c2.85-1.97,5.18-2.48,5.72-2.58c0.08-0.01,0.11-0.01,0.11-0.01
			C169.99,182.69,169.61,192.31,168.79,197.52z"/>
		<path class="st5" d="M165.99,222.92l-0.32,3.14c-1.89,2.65-8.29,2.89-14.34,2.45v-0.01c-6.35-0.46-12.32-1.68-12.32-1.68
			s0.16-1.22,0.52-3.31c2.65,0.7,8.96,1.61,14.57,1.68C160.41,225.28,164.07,223.78,165.99,222.92z"/>
		<path class="st5" d="M191.31,170.8c0,0,12.98-1.98,21.22,5.35c8.25,7.34,16.43,22.73,11.45,31.96l2.02,13.38
			c0,0,13.57-21.32-0.99-41.98c-9.8-13.9-22.33-14.24-28.66-13.3c-0.69,1.98-2.24,3.47-4.3,4.18L191.31,170.8z"/>
		<path class="st5" d="M160.01,182.4c0,0,3.72-8.49,10.64-7.51c6.93,0.98,27.67,29.16,23.28,49.88
			c-4.39,20.72-22.32,22.93-22.32,22.93s-3.47-5.26,0.43-10.15c0,0,11.78-2.89,14.96-16.38c3.18-13.49-12.85-40.86-18.74-41.7
			c-2.12-0.3-3.71,1.95-3.71,1.95S162.06,182.09,160.01,182.4z"/>
		<path class="st6" d="M234.76,270.98c0,0-35.51,11.56-54.67,6.38c-1.43-0.39-13.09-2.74-13.09-2.74s6.59-24.99,4.75-41.58
			c-0.49-4.4-1.53-13.08-4.63-20.96l-1.44,13.99c-1.89,2.64-8.29,2.89-14.34,2.44l0,0c0,0,9.66-5.14,10.7-16.69
			c0.3-3.36,0.95-6.06,1.71-8.21c1.86-5.23,4.41-7.14,4.41-7.14s0.24,0.38,0.63,1.06c1.88,3.22,7.34,13.14,7.97,21.14
			c0.78,9.68,3.84,30.29,18.78,42.5c8.31,6.79,36.08,5.73,36.53-3.2c0-0.09,0.01-0.18,0.02-0.27
			C233.62,265.65,234.76,270.98,234.76,270.98z"/>
	</g>
</g>
<g id="DESIGNED_BY_FREEPIK" class="st0">
	<g class="st16">
		<g id="XMLID_319_">
			<g id="XMLID_338_">
				<path id="XMLID_346_" class="st17" d="M260.1,465.47c-0.43,0.44-0.8,0.93-1.11,1.45l-0.47-0.24c-0.07-0.3-0.35-0.5-0.66-0.47
					c-0.33,0.04-0.57,0.34-0.53,0.67c0.04,0.33,0.34,0.57,0.67,0.53c0.07-0.01,0.13-0.03,0.18-0.05l0.45,0.23
					c-0.25,0.55-0.43,1.14-0.54,1.74l0.75,0.13c0.23-1.31,0.85-2.51,1.79-3.47L260.1,465.47z"/>
				<path id="XMLID_345_" class="st17" d="M265.59,463.16c-0.17,0-0.34,0.01-0.51,0.02l-0.07-0.63c0.19-0.15,0.3-0.39,0.27-0.64
					c-0.05-0.39-0.4-0.67-0.8-0.63c-0.39,0.05-0.67,0.4-0.63,0.8c0.03,0.25,0.19,0.46,0.4,0.56l0.07,0.62
					c-0.71,0.12-1.4,0.33-2.06,0.65l0.33,0.68c0.93-0.45,1.94-0.67,3-0.67c0.5,0,0.99,0.05,1.48,0.16l0.16-0.74
					C266.69,463.22,266.14,463.16,265.59,463.16z"/>
				<path id="XMLID_344_" class="st17" d="M272.19,465.71c0.33-0.04,0.57-0.34,0.53-0.67c-0.04-0.33-0.34-0.57-0.67-0.53
					c-0.31,0.04-0.54,0.3-0.53,0.61l-0.42,0.36c-0.42-0.43-0.89-0.81-1.41-1.14l-0.4,0.64c1.13,0.71,2.02,1.73,2.56,2.93l0.69-0.31
					c-0.25-0.55-0.57-1.07-0.94-1.55l0.4-0.35C272.06,465.72,272.13,465.72,272.19,465.71z"/>
				<path id="XMLID_343_" class="st17" d="M265.04,473.37c-0.39,0.02-0.77,0.03-1.16,0.03c-0.88,0-1.73-0.06-2.48-0.18
					c-0.39-0.06-0.85-0.15-1.27-0.29c1.05,1.86,3.07,3.13,5.39,3.13c2.86,0,5.26-1.92,5.95-4.5c-0.68,0.45-1.51,0.83-2.46,1.12
					C267.84,473.05,266.46,473.29,265.04,473.37z"/>
				<path id="XMLID_339_" class="st17" d="M265.59,464.68c-3.35,0-6.08,2.67-6.08,5.94c0,0.43,0.05,0.85,0.14,1.26
					c0.67,0.48,2.71,0.89,5.35,0.73c2.88-0.17,5.3-0.96,6.67-2.16c-0.01-0.19-0.02-0.39-0.05-0.58
					C271.24,466.91,268.65,464.68,265.59,464.68z M263.43,471.19c-1.02,0-1.85-0.83-1.85-1.85c0-1.02,0.83-1.85,1.85-1.85
					c1.02,0,1.85,0.83,1.85,1.85C265.28,470.36,264.45,471.19,263.43,471.19z M268.17,470.29c-0.75,0-1.36-0.61-1.36-1.36
					s0.61-1.36,1.36-1.36c0.75,0,1.36,0.61,1.36,1.36S268.92,470.29,268.17,470.29z"/>
			</g>
			<path id="XMLID_336_" class="st17" d="M281.6,466.55c-0.29-0.12-0.81-0.31-1.38-0.24c-0.55,0.07-0.84,0.34-0.84,1.01v0.87h2.23
				v1.72h-2.23v5.45h-1.93v-5.45h-1.34v-1.72h1.34v-0.89c0-1.68,0.9-2.78,2.57-2.78c0.64,0,1.16,0.12,1.59,0.31L281.6,466.55z"/>
			<path id="XMLID_334_" class="st17" d="M286.3,469.88c-0.18-0.03-0.36-0.05-0.53-0.05c-0.9,0-1.51,0.55-1.51,1.61v3.91h-1.93
				v-7.17h1.87v0.78c0.45-0.67,1.14-0.98,2.02-0.98c0.41,0,0.85,0.13,1.09,0.34L286.3,469.88z"/>
			<path id="XMLID_331_" class="st17" d="M293.97,471.76c0,0.22-0.01,0.49-0.04,0.65h-5.08c0.21,1.04,0.93,1.49,1.84,1.49
				c0.62,0,1.3-0.25,1.81-0.69l1.13,1.24c-0.81,0.75-1.85,1.09-3.06,1.09c-2.2,0-3.72-1.5-3.72-3.75c0-2.26,1.48-3.8,3.63-3.8
				C292.54,467.99,293.96,469.52,293.97,471.76z M288.85,471.09h3.18c-0.18-0.92-0.73-1.44-1.56-1.44
				C289.55,469.65,289.02,470.2,288.85,471.09z"/>
			<path id="XMLID_328_" class="st17" d="M301.62,471.76c0,0.22-0.02,0.49-0.04,0.65h-5.08c0.21,1.04,0.93,1.49,1.84,1.49
				c0.62,0,1.3-0.25,1.81-0.69l1.13,1.24c-0.81,0.75-1.85,1.09-3.06,1.09c-2.2,0-3.72-1.5-3.72-3.75c0-2.26,1.48-3.8,3.63-3.8
				C300.2,467.99,301.61,469.52,301.62,471.76z M296.5,471.09h3.18c-0.18-0.92-0.73-1.44-1.56-1.44
				C297.21,469.65,296.67,470.2,296.5,471.09z"/>
			<path id="XMLID_325_" class="st17" d="M309.96,471.76c0,2.15-1.5,3.77-3.47,3.77c-0.96,0-1.64-0.38-2.11-0.93v3.71h-1.92v-10.13
				h1.89v0.79c0.47-0.58,1.15-0.98,2.14-0.98C308.47,467.99,309.96,469.61,309.96,471.76z M304.29,471.76
				c0,1.13,0.75,1.98,1.84,1.98c1.14,0,1.85-0.88,1.85-1.98c0-1.1-0.71-1.98-1.85-1.98C305.03,469.79,304.29,470.63,304.29,471.76z"
				/>
			<path id="XMLID_322_" class="st17" d="M313.07,465.84c0,0.7-0.54,1.23-1.24,1.23c-0.7,0-1.23-0.53-1.23-1.23
				c0-0.7,0.53-1.24,1.23-1.24C312.53,464.59,313.07,465.14,313.07,465.84z M312.81,475.35h-1.93v-7.17h1.93V475.35z"/>
			<path id="XMLID_320_" class="st17" d="M316.03,470.74l2.7-2.55h2.37l-3.48,3.38l3.5,3.8h-2.38l-2.72-2.9v2.9h-1.93V464.7h1.93
				V470.74z"/>
		</g>
		<g>
			<path class="st17" d="M184.41,475.29v-1.05c-0.53,0.72-1.39,1.23-2.39,1.23c-1.85,0-3.15-1.41-3.15-3.71
				c0-2.26,1.29-3.72,3.15-3.72c0.95,0,1.82,0.47,2.39,1.25v-3.76h1.1v9.77H184.41z M184.41,473.37v-3.21
				c-0.4-0.62-1.24-1.14-2.12-1.14c-1.42,0-2.27,1.17-2.27,2.74c0,1.57,0.85,2.72,2.27,2.72
				C183.17,474.48,184.02,473.99,184.41,473.37z"/>
			<path class="st17" d="M186.93,471.74c0-2.05,1.46-3.71,3.49-3.71c2.14,0,3.4,1.67,3.4,3.79v0.28h-5.73
				c0.09,1.33,1.03,2.45,2.55,2.45c0.81,0,1.63-0.32,2.18-0.89l0.53,0.72c-0.7,0.7-1.65,1.08-2.81,1.08
				C188.44,475.46,186.93,473.96,186.93,471.74z M190.4,468.95c-1.51,0-2.26,1.27-2.31,2.36h4.64
				C192.72,470.25,192.01,468.95,190.4,468.95z"/>
			<path class="st17" d="M194.61,474.35l0.57-0.79c0.47,0.54,1.36,1.01,2.33,1.01c1.08,0,1.67-0.51,1.67-1.22
				c0-1.71-4.38-0.66-4.38-3.28c0-1.1,0.95-2.04,2.64-2.04c1.2,0,2.05,0.45,2.62,1.03l-0.51,0.76c-0.42-0.51-1.2-0.89-2.11-0.89
				c-0.97,0-1.57,0.48-1.57,1.11c0,1.55,4.38,0.53,4.38,3.28c0,1.19-0.95,2.14-2.78,2.14C196.31,475.46,195.32,475.11,194.61,474.35
				z"/>
			<path class="st17" d="M201.48,466.47c0-0.41,0.34-0.75,0.73-0.75c0.41,0,0.75,0.34,0.75,0.75c0,0.41-0.34,0.73-0.75,0.73
				C201.81,467.2,201.48,466.88,201.48,466.47z M201.67,475.29v-7.07h1.1v7.07H201.67z"/>
			<path class="st17" d="M204.58,477.11l0.56-0.82c0.59,0.7,1.29,0.97,2.3,0.97c1.17,0,2.27-0.57,2.27-2.12v-1.01
				c-0.51,0.72-1.38,1.26-2.37,1.26c-1.85,0-3.15-1.38-3.15-3.66c0-2.27,1.29-3.68,3.15-3.68c0.95,0,1.8,0.47,2.37,1.25v-1.07h1.1
				v6.87c0,2.34-1.64,3.08-3.37,3.08C206.24,478.16,205.42,477.93,204.58,477.11z M209.71,473.25v-3.09
				c-0.38-0.62-1.23-1.14-2.11-1.14c-1.42,0-2.27,1.13-2.27,2.7c0,1.55,0.85,2.7,2.27,2.7
				C208.48,474.41,209.33,473.87,209.71,473.25z"/>
			<path class="st17" d="M217.41,475.29v-4.63c0-1.24-0.63-1.64-1.58-1.64c-0.86,0-1.68,0.53-2.09,1.1v5.17h-1.1v-7.07h1.1v1.03
				c0.5-0.59,1.46-1.2,2.52-1.2c1.48,0,2.26,0.75,2.26,2.29v4.97H217.41z"/>
			<path class="st17" d="M219.93,471.74c0-2.05,1.46-3.71,3.49-3.71c2.14,0,3.4,1.67,3.4,3.79v0.28h-5.73
				c0.09,1.33,1.03,2.45,2.55,2.45c0.81,0,1.63-0.32,2.18-0.89l0.53,0.72c-0.7,0.7-1.66,1.08-2.81,1.08
				C221.44,475.46,219.93,473.96,219.93,471.74z M223.4,468.95c-1.51,0-2.26,1.27-2.31,2.36h4.64
				C225.72,470.25,225.02,468.95,223.4,468.95z"/>
			<path class="st17" d="M233.35,475.29v-1.05c-0.53,0.72-1.39,1.23-2.39,1.23c-1.85,0-3.15-1.41-3.15-3.71
				c0-2.26,1.29-3.72,3.15-3.72c0.95,0,1.82,0.47,2.39,1.25v-3.76h1.1v9.77H233.35z M233.35,473.37v-3.21
				c-0.4-0.62-1.25-1.14-2.12-1.14c-1.42,0-2.27,1.17-2.27,2.74c0,1.57,0.85,2.72,2.27,2.72
				C232.1,474.48,232.95,473.99,233.35,473.37z"/>
			<path class="st17" d="M239.69,475.29v-9.77h1.1v3.76c0.57-0.78,1.42-1.25,2.39-1.25c1.85,0,3.15,1.46,3.15,3.72
				c0,2.3-1.3,3.71-3.15,3.71c-1,0-1.86-0.51-2.39-1.23v1.05H239.69z M242.9,474.48c1.44,0,2.29-1.16,2.29-2.72
				c0-1.57-0.85-2.74-2.29-2.74c-0.86,0-1.73,0.53-2.11,1.14v3.21C241.17,473.99,242.04,474.48,242.9,474.48z"/>
			<path class="st17" d="M247.53,477.06c0.16,0.07,0.43,0.12,0.6,0.12c0.48,0,0.81-0.16,1.05-0.75l0.47-1.07l-2.96-7.15h1.19
				l2.36,5.8l2.34-5.8h1.2l-3.54,8.51c-0.42,1.03-1.14,1.42-2.08,1.44c-0.23,0-0.6-0.04-0.81-0.1L247.53,477.06z"/>
		</g>
	</g>
</g>
</svg>
